<?xml version="1.0" encoding="UTF-8" standalone="no"?>
<svg
   xmlns:dc="http://purl.org/dc/elements/1.1/"
   xmlns:cc="http://creativecommons.org/ns#"
   xmlns:rdf="http://www.w3.org/1999/02/22-rdf-syntax-ns#"
   xmlns:svg="http://www.w3.org/2000/svg"
   xmlns="http://www.w3.org/2000/svg"
   xmlns:sodipodi="http://sodipodi.sourceforge.net/DTD/sodipodi-0.dtd"
   xmlns:inkscape="http://www.inkscape.org/namespaces/inkscape"
   version="1.1"
   id="svg4206"
   viewBox="0 0 477.38153 565.00025"
   height="159.45563mm"
   width="134.72768mm"
   sodipodi:docname="interaction.svg"
   inkscape:version="0.92.2 5c3e80d, 2017-08-06">
  <sodipodi:namedview
     pagecolor="#ffffff"
     bordercolor="#666666"
     borderopacity="1"
     objecttolerance="10"
     gridtolerance="10"
     guidetolerance="10"
     inkscape:pageopacity="0"
     inkscape:pageshadow="2"
     inkscape:window-width="1209"
     inkscape:window-height="687"
     id="namedview7"
     showgrid="false"
     inkscape:zoom="0.7"
     inkscape:cx="305.23797"
     inkscape:cy="301.33347"
     inkscape:window-x="416"
     inkscape:window-y="184"
     inkscape:window-maximized="0"
     inkscape:current-layer="svg4206" />
  <defs
     id="defs4208" />
  <metadata
     id="metadata4211">
    <rdf:RDF>
      <cc:Work
         rdf:about="">
        <dc:format>image/svg+xml</dc:format>
        <dc:type
           rdf:resource="http://purl.org/dc/dcmitype/StillImage" />
        <dc:title></dc:title>
      </cc:Work>
    </rdf:RDF>
  </metadata>
  <g
     transform="translate(-121.97779,-175.72314)"
     id="layer1"
     style="fill:#000000">
    <path
       id="path4765"
       style="fill:#000000"
       d="m 450.92214,393.58141 c -2.1347,-1.49521 -2.75247,-2.98287 -2.46562,-5.9375 0.31941,-3.29011 0.96979,-4.00963 3.93077,-4.34862 6.56179,-0.75121 10.70794,5.97166 6.36268,10.31691 -2.48278,2.48278 -4.24911,2.47583 -7.82783,-0.0308 z m 6.70095,-3.05967 c 0.44352,-0.71762 0.1396,-2.10819 -0.67536,-3.09016 -1.27041,-1.53075 -1.73145,-1.53568 -3.23261,-0.0345 -0.96298,0.96297 -1.75086,2.35355 -1.75086,3.09015 0,1.72217 4.59847,1.75024 5.65883,0.0345 z m -196.28383,-2.11788 c -5.6348,-2.98078 -7.47761,-3.2908 -18.72171,-3.14961 -6.85944,0.0861 -13.09712,-0.36245 -13.86151,-0.99683 -0.7644,-0.63439 -7.52713,-3.13526 -15.02829,-5.55749 -25.50264,-8.23517 -23.43439,-6.9034 -32.71643,-21.06633 -4.57136,-6.97516 -12.02503,-16.33836 -16.56372,-20.80711 -9.84361,-9.69194 -11.87701,-15.09321 -10.97476,-29.15208 0.44408,-6.91982 1.4496,-10.72642 4.13828,-15.66642 3.3775,-6.20559 3.47506,-6.82443 1.98952,-12.62068 -1.3545,-5.28502 -1.28317,-6.64939 0.53667,-10.26547 2.36414,-4.69758 11.65864,-14.78523 13.64971,-14.81449 2.862,-0.0421 4.6686,-2.37232 5.8232,-7.5111 1.82302,-8.11364 8.51127,-18.29469 12.84875,-19.55873 4.03665,-1.17637 4.89324,-2.42327 6.94093,-10.10358 1.65013,-6.18919 4.91732,-8.74782 12.36527,-9.68361 2.91526,-0.36629 6.26204,-1.14995 7.43729,-1.74146 3.28033,-1.65105 10.82346,-3.88238 13.12455,-3.88238 1.13315,0 4.31621,1.17587 7.07349,2.61304 4.71514,2.45766 5.3306,2.50006 10.35099,0.71301 2.93577,-1.04501 9.04293,-2.19114 13.57146,-2.54697 4.52852,-0.35582 9.70828,-1.31883 11.51059,-2.14 2.55627,-1.16472 4.50147,-1.15019 8.84552,0.0661 4.7359,1.32597 6.96828,1.22916 14.92829,-0.64742 8.70886,-2.05312 9.868,-2.06712 16.67079,-0.20134 4.02111,1.10286 8.853,1.69047 10.73751,1.30581 6.45952,-1.31851 14.38105,0.7701 19.66537,5.18503 2.76738,2.31208 6.68159,4.56617 8.69827,5.00911 4.76643,1.04689 14.30251,9.48821 18.16515,16.07979 1.67237,2.85388 3.41607,7.53696 3.87488,10.40685 0.52584,3.28905 2.8246,7.87902 6.21842,12.41638 2.96128,3.95912 5.75565,9.17861 6.2097,11.59888 0.45404,2.42027 1.84037,6.3954 3.08073,8.83362 1.24036,2.43823 3.45782,8.47975 4.92771,13.4256 2.47034,8.31215 2.5587,9.84727 1.16811,20.29175 -1.1289,8.47901 -1.14963,12.00647 -0.0831,14.13254 2.89737,5.77567 7.77335,18.95803 7.77335,21.01548 0,1.16941 -1.09195,6.5568 -2.42656,11.97199 -2.25229,9.1386 -2.9202,10.29899 -9.29915,16.15545 -5.13882,4.71791 -9.02024,7.00431 -15.38592,9.06326 -4.68235,1.51449 -9.72643,2.42016 -11.20907,2.0126 -1.48263,-0.40756 -6.39185,0.50748 -10.90936,2.03342 -6.87314,2.32163 -9.04807,2.56264 -13.32625,1.47672 -3.32429,-0.84379 -6.50405,-0.88286 -9.09064,-0.11175 -2.18792,0.6523 -10.67198,1.2617 -18.85346,1.35422 -14.20287,0.16064 -15.24837,0.35611 -23.125,4.32368 -10.90121,5.4911 -21.29599,5.74142 -30.74959,0.74051 z m 30.13635,-4.2585 c 6.89273,-3.67972 8.32294,-3.9569 22.36365,-4.33402 35.38445,-0.95043 41.28557,-1.39385 45.94802,-3.45268 2.67154,-1.17967 6.00418,-1.74669 7.72609,-1.31452 4.89458,1.22846 16.29727,-2.81117 22.35691,-7.92039 7.2966,-6.15216 9.19838,-9.50319 11.43946,-20.15696 l 1.87027,-8.8909 -4.99503,-11.64521 -4.99502,-11.64523 1.79903,-10.30513 c 2.01973,-11.56929 1.01497,-18.16945 -4.78072,-31.40383 -1.65591,-3.78125 -3.64459,-9.2532 -4.41929,-12.15989 -0.7747,-2.9067 -3.55944,-7.77009 -6.18834,-10.80754 -3.59564,-4.15444 -4.98024,-7.03344 -5.58877,-11.62078 -1.31421,-9.90705 -9.0485,-19.56898 -19.54761,-24.41954 -3.09375,-1.4293 -7.19745,-3.90998 -9.11934,-5.51262 -4.41702,-3.6833 -12.55311,-5.91311 -17.90928,-4.90828 -2.44509,0.4587 -7.0628,-0.0775 -11.31662,-1.31416 -6.74333,-1.96034 -7.74963,-1.95618 -16.33341,0.0674 -7.51269,1.77112 -10.20313,1.90321 -15.05545,0.73916 -4.81931,-1.15614 -6.91451,-1.06226 -11.36916,0.50943 -3.00358,1.05973 -8.10263,1.92678 -11.33123,1.92678 -3.22858,0 -8.45287,0.88002 -11.60951,1.95559 -5.44154,1.85412 -6.03814,1.81947 -11.49775,-0.66766 -5.09349,-2.32036 -6.36892,-2.44873 -11.04582,-1.11174 -2.90809,0.83133 -5.90572,1.97401 -6.66142,2.53927 -0.75569,0.56526 -4.35615,1.59331 -8.00101,2.28454 -8.173,1.54998 -9.71289,2.77587 -10.75645,8.5631 -1.19883,6.64828 -2.73457,8.97667 -6.87208,10.41901 -4.65845,1.62395 -10.19126,9.62699 -12.8021,18.51789 -1.82202,6.20463 -2.62309,7.20587 -8.21549,10.26823 -4.22685,2.3146 -7.24603,5.18393 -9.49794,9.02653 -3.11242,5.31094 -3.21764,6.01088 -1.83881,12.23177 1.40072,6.31966 1.29922,6.90753 -2.40231,13.9129 -3.27414,6.19654 -3.86576,8.68009 -3.871,16.25001 -0.008,11.57736 2.78641,19.46209 8.14171,22.97256 4.07365,2.67035 17.07633,19.1596 23.27709,29.51869 2.87325,4.8001 4.21242,5.76562 10.625,7.66054 7.24244,2.14014 13.86945,4.41616 26.08738,8.95961 4.47874,1.66549 9.62456,2.32416 18.1573,2.32416 10.51039,0 12.63674,0.39092 18.125,3.33227 9.35785,5.0152 20.24534,4.87473 30.10405,-0.3884 z m 140.41743,-8.64008 c -3.84276,-3.84277 -2.93638,-11.10679 1.7019,-13.63952 3.39464,-1.85363 3.6223,-1.78497 7.1875,2.16796 4.48174,4.96912 4.59492,6.99331 0.61363,10.97458 -3.74191,3.74192 -6.13304,3.86696 -9.50303,0.49698 z m 8.57192,-5.03579 c 0.4289,-3.68965 -2.25507,-6.54254 -5.12062,-5.44291 -2.63035,1.00935 -3.26116,3.11102 -1.97357,6.57536 1.52849,4.11254 6.57819,3.30645 7.09419,-1.13245 z m -29.05483,-13.92114 c -2.48475,-3.54747 -2.50884,-12.11185 -0.044,-15.63094 3.05879,-4.36702 13.26004,-1.98832 15.00131,3.49797 3.07155,9.6776 -9.52193,19.89308 -14.95733,12.13297 z m 11.80539,-6.5128 c 1.06574,-3.05717 0.8954,-4.11795 -0.95906,-5.97241 -1.94348,-1.94347 -2.7224,-2.03788 -5.63883,-0.68331 -2.63495,1.22382 -3.38602,2.45102 -3.39362,5.54487 -0.0131,5.35449 2.99381,8.38913 6.27941,6.33724 1.3289,-0.82991 2.99935,-3.18179 3.7121,-5.22639 z"
       inkscape:connector-curvature="0"
       sodipodi:nodetypes="cccccccccscccccssscsccccssccssscccsscsscccccsscscsccscccscccccssccccssscscscccccscccccscccsscccsscsscccccccsccscccccccccsc" />
  </g>
  <g
     id="g4641"
     transform="translate(-121.97779,-175.72314)"
     style="fill:#ff6600">
    <path
       d="m 544.4643,739.96458 c 0,-0.33655 4.5,-4.91119 10,-10.16585 l 10,-9.55395 v -23.1029 -23.10292 l -3.40542,2.23132 c -4.64151,3.04123 -7.28835,5.74808 -8.26062,8.44793 -0.88316,2.45238 -3.33396,1.75767 -3.33396,-0.94503 0,-1.79455 8.16002,-9.624 12.38941,-11.8875 2.76512,-1.47985 3.26792,-5.29392 1.83771,-13.9403 -0.61732,-3.73209 -1.57236,-4.87099 -5.55989,-6.63028 -8.16342,-3.6017 -16.16723,-15.90368 -16.16723,-24.84932 0,-2.30505 1.54687,-7.21741 3.4375,-10.91636 2.67905,-5.24147 4.40281,-7.06266 7.8125,-8.25404 10.95468,-3.82773 18.90658,-0.72219 25.51333,9.96397 4.31172,6.97404 5.80541,18.36565 3.22498,24.59535 -2.0656,4.9868 -8.13581,9.97179 -12.14264,9.97179 h -3.21251 l 0.81676,9.66231 c 0.74338,8.79406 1.15311,9.92555 4.55983,12.5917 5.38411,4.21369 15.61525,15.23135 15.61525,16.81566 0,0.74084 -0.70313,1.58137 -1.5625,1.86783 -0.85938,0.28646 -1.5625,-0.3092 -1.5625,-1.32369 0,-2.14649 -14.92487,-16.35562 -16.02447,-15.25601 -0.40678,0.40678 -0.62755,11.26456 -0.4906,24.1284 l 0.249,23.3888 4.07053,3.42614 c 2.2388,1.88437 6.1654,4.41562 8.72579,5.625 4.57094,2.15904 6.36573,5.32386 3.01919,5.32386 -1.70154,0 -8.19442,-4.06094 -15.09371,-9.44029 l -3.66925,-2.86091 -5.08075,3.52579 c -2.7944,1.93917 -6.73285,5.26945 -8.7521,7.4006 -3.18675,3.36334 -6.95363,5.13091 -6.95363,3.2629 z m 27.35145,-92.02362 c 5.18373,-1.80705 7.64855,-6.79868 7.64855,-15.48947 0,-15.80784 -11.13278,-26.03906 -23.78868,-21.86224 -3.98026,1.31362 -5.245,2.6123 -7.38224,7.58044 -3.15432,7.33244 -3.21182,11.51812 -0.24786,18.04252 4.92901,10.84992 13.77309,15.21378 23.77023,11.72875 z"
       style="fill:#ff6600"
       id="path4639"
       inkscape:connector-curvature="0"
       sodipodi:nodetypes="sccccccssccsscsssccsscscscccsccccscscccc" />
  </g>
  <g
     id="g4645"
     transform="translate(-121.97779,-175.72314)"
     style="fill:#0090ff;fill-opacity:1">
    <path
       sodipodi:nodetypes="sccccsscscscssccccsscscsssscsccccssccscccccccscsscccccscccc"
       inkscape:connector-curvature="0"
       d="m 186.75367,733.15729 c -18.3346,-0.38819 -33.70399,-1.07519 -34.1542,-1.52666 -0.45021,-0.45148 2.92809,-5.99922 7.50732,-12.32831 5.99647,-8.28792 7.94561,-11.88773 6.96669,-12.86664 -2.6321,-2.63211 -1.29881,-3.43841 4.57832,-2.76873 3.26563,0.37213 23.09375,-0.0348 44.0625,-0.90426 23.53654,-0.97594 43.14726,-1.18405 51.25,-0.54387 12.37765,0.97792 25.20881,0.52723 32.7079,-1.14885 3.20021,-0.71528 3.6118,-0.1582 10.33791,13.99206 3.85276,8.10535 6.83759,15.23926 6.63296,15.85315 -0.20578,0.61735 -20.18765,1.2846 -44.71291,1.49309 -24.38747,0.2073 -46.02836,0.61945 -48.09086,0.91587 -2.0625,0.29643 -18.75104,0.22135 -37.08563,-0.16685 z m 84.72204,-4.22403 41.38641,-0.23177 -1.11392,-3.125 c -0.61265,-1.71875 -3.20576,-6.93639 -5.76248,-11.59476 l -4.64856,-8.46975 -38.74892,-0.28025 c -21.31191,-0.15413 -50.19161,0.23222 -64.1771,0.85856 l -25.42815,1.13879 -7.37272,10.04462 c -4.40913,6.00702 -6.84494,10.3708 -6.05973,10.85609 0.72214,0.4463 14.34529,0.93278 30.27367,1.08105 15.92838,0.14826 29.22505,0.53394 29.54816,0.85705 0.32311,0.32311 2.8666,0.25215 5.6522,-0.15769 2.7856,-0.40984 23.68862,-0.84946 46.45114,-0.97694 z m -2.01141,-38.71897 c -29.83076,-1.55789 -36.22104,-1.63911 -69.85083,-0.8878 l -27.97583,0.625 0.0996,-31.875 0.0997,-31.875 3.50118,-0.123 c 1.92564,-0.0676 8.56367,-0.76098 14.75117,-1.54074 20.29251,-2.55731 66.04835,-4.37304 90.63453,-3.59662 13.21686,0.41737 24.2187,0.9469 24.44852,1.17672 0.22983,0.22984 -0.34272,4.05516 -1.27232,8.50075 -3.55221,16.9874 -4.43573,25.14145 -4.43573,40.93728 0,8.97387 -0.34143,17.2059 -0.75874,18.29337 -0.4173,1.08749 -1.96417,1.88623 -3.4375,1.77498 -1.47331,-0.11124 -13.08501,-0.74572 -25.80376,-1.40994 z m 26.71214,-4.9503 c 0.41455,-1.54687 0.77482,-9.28125 0.80061,-17.1875 0.0257,-7.90625 0.55598,-16.56968 1.17819,-19.25205 0.62221,-2.68239 1.5129,-8.94942 1.97931,-13.92676 l 0.84802,-9.0497 -6.38386,-0.878 c -9.16819,-1.26095 -44.64685,-1.55051 -60.75941,-0.4959 -7.5625,0.49498 -20.21875,1.29289 -28.125,1.77311 -7.90625,0.48023 -17.93284,1.5251 -22.28132,2.32194 l -7.90632,1.44881 0.0597,27.90687 0.0597,27.90688 29.72161,-0.34588 c 16.34689,-0.19022 31.40911,-0.31401 33.47161,-0.27508 5.19463,0.098 53.42404,2.43426 55.16671,2.67227 0.77919,0.10638 1.75589,-1.07213 2.17043,-2.61901 z"
       style="fill:#0090ff;fill-opacity:1"
       id="path4643" />
  </g>
  <g
     id="g4649"
     transform="translate(-121.97779,-175.72314)"
     style="fill:#aa4400">
    <path
       sodipodi:nodetypes="sccscsscccscccsscscccssssccccscccccscsccsccc"
       inkscape:connector-curvature="0"
       d="m 466.96426,527.31944 c 0,-1.64965 13.79111,-16.90205 21.08135,-23.31509 l 3.91865,-3.44715 v -22.45112 c 0,-25.49269 0.62302,-24.48979 -10.3125,-16.6003 -3.52475,2.54293 -5.9375,5.25627 -5.9375,6.67717 0,1.72864 -0.88032,2.39354 -3.16898,2.39354 -2.73289,0 -2.99299,-0.32886 -1.89004,-2.38972 1.74685,-3.26404 11.05447,-11.19245 15.91845,-13.55969 3.21984,-1.56705 4.2632,-3.10123 5.43718,-7.99488 0.9532,-3.97341 2.1112,-6.05571 3.36765,-6.05571 1.51597,0 1.77366,1.05311 1.2369,5.05495 -0.4171,3.10975 -0.11975,5.51098 0.77291,6.24004 0.79801,0.6518 4.67954,3.74703 8.62561,6.8783 8.96789,7.11611 12.5348,13.07671 7.82532,13.07671 -1.03125,0 -1.875,-0.79595 -1.875,-1.76876 0,-1.7534 -9.85678,-11.14384 -14.0625,-13.39718 -2.04643,-1.09644 -2.1875,0.30675 -2.1875,21.75842 v 22.93045 l 10.59398,10.51955 c 6.98048,6.93142 10.17253,10.94101 9.35837,11.75517 -0.81417,0.81416 -4.5437,-2.05305 -10.93414,-8.40601 -5.33419,-5.3029 -10.42021,-9.64164 -11.30229,-9.64164 -0.88207,0 -6.47631,5.0625 -12.43164,11.25 -9.40286,9.76945 -14.03428,13.2322 -14.03428,10.49295 z m 19.375,-92.6681 c -7.82462,-5.70546 -12.77918,-12.13305 -15.15002,-19.65421 -2.07733,-6.59007 -2.07662,-7.25349 0.015,-13.88891 2.82882,-8.97404 5.29982,-11.31193 13.08815,-12.38309 9.66769,-1.32965 17.98379,1.91872 26.04184,10.17229 11.7475,12.03252 12.36323,24.62653 1.69971,34.76558 -3.37963,3.2134 -5.03021,3.77341 -12.2991,4.17285 -7.66994,0.42146 -8.82769,0.14624 -13.39556,-3.18451 z m 16.78916,-0.30022 c 9.39968,-2.69579 15.051,-12.11984 12.63915,-21.07678 -1.93765,-7.19588 -11.22521,-17.01033 -18.41564,-19.46035 -6.47001,-2.20456 -10.38763,-2.54808 -10.38763,-0.91084 0,0.59216 -1.42597,0.80407 -3.1688,0.4709 -1.93954,-0.37076 -4.07158,0.21125 -5.49599,1.50033 -2.93474,2.6559 -5.38698,12.14358 -4.30375,16.65119 2.22294,9.25028 9.76886,18.51483 17.96854,22.061 5.28338,2.28492 5.75118,2.31696 11.16416,0.76455 z"
       style="fill:#aa4400"
       id="path4647" />
  </g>
  <g
     id="g4653"
     transform="translate(-118.22779,-164.47314)"
     style="fill:#0044aa">
    <path
       sodipodi:nodetypes="ssccscccscsccscssssccscsccccccccccsccsssccc"
       inkscape:connector-curvature="0"
       d="m 235.7266,326.20149 c -29.7803,-1.4534 -30.11745,-1.64731 -19.74751,-11.35828 3.63559,-3.40456 8.16799,-8.06351 10.07199,-10.35322 l 3.46181,-4.16311 37.16318,0.84121 c 20.43975,0.46267 41.57475,0.95919 46.96665,1.10338 l 9.80348,0.26213 5.40555,7.45895 c 2.97306,4.10241 6.91142,9.28437 8.75191,11.51544 2.98939,3.62379 3.11654,4.14469 1.19194,4.88323 -3.42571,1.31456 -74.94325,1.18292 -103.069,-0.18973 z m 98.73681,-2.77326 c 0.005,-1.69713 -11.16711,-15.85394 -13.07555,-16.56837 -4.07561,-1.52573 -34.09496,-2.81942 -62.73587,-2.70361 l -26.43729,0.10688 -8.25022,7.93175 c -4.53762,4.36247 -8.25022,8.24073 -8.25022,8.61837 0,0.37764 2.67188,0.79155 5.9375,0.9198 3.26563,0.12825 11,0.67653 17.1875,1.21839 9.57429,0.83846 95.6217,1.2675 95.62415,0.47679 z m -44.37415,-31.7668 c -14.4375,-0.5412 -34.00907,-0.68983 -43.49239,-0.3303 l -17.24237,0.6537 0.36738,-29.0237 c 0.35343,-27.92158 0.46231,-29.03801 2.86738,-29.40089 8.2004,-1.2373 38.61577,-2.8984 52.27954,-2.85518 8.81625,0.0279 19.57525,-0.32901 23.9089,-0.79311 4.3919,-0.47033 8.18955,-0.34189 8.5802,0.29019 1.18355,1.91502 1.26658,62.12747 0.0859,62.29063 -0.60747,0.084 -12.91701,-0.29015 -27.35451,-0.83134 z m 24.96204,-8.80718 c 0.42201,-2.97152 0.6032,-15.24651 0.40264,-27.27776 l -0.36468,-21.875 -33.125,0.2969 c -18.21875,0.1633 -36.71916,0.7258 -41.11204,1.25 l -7.98704,0.9531 0.25302,24.93384 c 0.13915,13.71361 0.44611,25.24486 0.68212,25.625 0.23601,0.38014 18.44139,0.8724 40.4564,1.09393 l 40.02729,0.40276 0.76729,-5.40276 z"
       style="fill:#0044aa"
       id="path4651" />
  </g>
  <g
     id="g4676"
     transform="translate(-121.97779,-175.72314)"
     style="fill:#000000;fill-opacity:1">
    <path
       sodipodi:nodetypes="csccsccsscccsccccccsccccscccssccssssscsscccsssssccsscccsccsccccsscscsccscccssscccsssscsccsccsssccsscccssccssssssccsccsssssscscccscsscsccsc"
       inkscape:connector-curvature="0"
       d="m 171.45027,606.9491 c -1.43878,-1.58982 -2.02057,-3.94341 -1.75624,-7.10478 0.33839,-4.04717 0.92877,-4.86904 4.10288,-5.71175 2.94246,-0.7812 4.29679,-0.43085 6.5625,1.69768 3.76378,3.53589 3.60148,6.06324 -0.65101,10.13738 -4.16319,3.98859 -5.40335,4.13599 -8.25813,0.98147 z m 7.18616,-4.08961 c 1.71963,-2.72616 0.13944,-6.033 -2.8829,-6.033 -1.95484,0 -2.53923,0.8151 -2.53923,3.54166 0,5.50834 2.72831,6.76194 5.42213,2.49134 z m -0.0701,-21.84766 c -2.20291,-0.8929 -3.23234,-8.02242 -1.72922,-11.97594 2.89936,-7.62588 12.65194,-4.71834 12.8954,3.8445 0.18576,6.5335 -5.28311,10.51604 -11.16618,8.13144 z m 7.63256,-5.74784 c 1.62798,-2.58511 -0.19441,-6.32952 -3.38645,-6.95805 -2.25097,-0.44324 -4.10784,4.73794 -2.86177,7.98514 0.9421,2.45506 4.41481,1.88421 6.24822,-1.02709 z m 246.39037,0.7263 c -1.375,-0.38561 -7.99568,-2.88646 -14.71263,-5.55745 -10.27135,-4.0844 -13.64916,-4.85288 -21.25,-4.83453 -9.35421,0.0226 -23.00483,1.97992 -40.28737,5.77668 -5.5,1.20829 -15.34375,2.22605 -21.875,2.26169 -14.09758,0.077 -19.08748,-1.78435 -30.70186,-11.45217 -7.20873,-6.00052 -8.02864,-6.3471 -16.875,-7.133 -5.11398,-0.45432 -14.36064,-1.97136 -20.54814,-3.37121 -6.1875,-1.39984 -14.625,-3.30422 -18.75,-4.23197 -4.125,-0.92774 -10.03125,-2.04399 -13.125,-2.48057 -3.09375,-0.43656 -7.03125,-1.2927 -8.75,-1.90253 -1.71875,-0.60983 -7.12433,-2.26338 -12.0124,-3.67455 -16.67706,-4.8146 -24.17727,-14.88983 -25.95864,-34.87086 -0.45021,-5.04993 -1.43538,-10.33422 -2.18927,-11.74287 -3.41213,-6.37562 -12.03277,-13.86423 -20.68839,-17.97168 -10.08343,-4.78501 -14.19061,-9.16039 -17.99333,-19.16833 -2.86497,-7.54 -3.15679,-22.13203 -0.98876,-49.44242 1.3364,-16.83459 1.25867,-18.56283 -1.33235,-29.62228 -2.90946,-12.41865 -3.99389,-14.6268 -15.39936,-31.35655 -6.75205,-9.90401 -7.18666,-10.9887 -7.1737,-17.90347 0.01,-5.25556 1.29348,-10.93573 4.48819,-19.86073 7.4515,-20.81711 7.85528,-22.82017 7.69661,-38.18154 -0.18981,-18.3761 1.47299,-22.37537 11.78598,-28.34697 8.35766,-4.83938 10.74008,-7.93459 15.202,-19.75021 1.82331,-4.82829 5.09265,-10.93518 7.2652,-13.57087 4.86474,-5.90177 17.45688,-12.02541 24.72805,-12.02541 6.18066,0 10.97884,-1.91849 19.8421,-7.9336 9.70563,-6.58678 24.58598,-11.06788 38.97807,-11.73793 10.39809,-0.48411 13.11871,-0.14105 21.875,2.75836 19.88979,6.58595 22.88832,7.08652 33.125,5.52979 5.15625,-0.78413 13.70726,-2.79957 19.00225,-4.47874 8.11978,-2.57499 12.0265,-3.04128 24.94984,-2.97789 17.21384,0.0844 19.0659,0.31263 36.93258,4.55061 14.61316,3.46624 30.82793,10.90782 38.1177,17.4937 3.77174,3.40754 5.66439,4.31321 7.68806,3.67888 1.47652,-0.46281 5.53752,-1.13721 9.02444,-1.49865 5.49464,-0.56957 7.32781,-0.11528 13.75,3.40747 12.7449,6.99091 16.67765,10.11163 23.19686,18.40716 8.65005,11.00699 15.65929,24.41702 18.39683,35.19669 2.2727,8.94931 2.33182,9.03119 8.62779,11.94815 4.94468,2.29091 7.8428,4.955 13.17278,12.10905 3.75835,5.04457 7.40194,10.29695 8.09684,11.67195 3.40941,6.74611 9.06276,27.48074 10.22448,37.5 2.23712,19.29423 3.40896,21.60441 14.60072,28.78423 11.17094,7.16643 14.85274,12.60453 19.78343,29.22048 2.11222,7.11801 3.03035,14.33292 3.66716,28.81764 1.01642,23.1196 2.76889,29.9013 10.40853,40.27902 3.15109,4.28046 7.39249,11.33688 9.42532,15.68096 3.61255,7.71983 3.67999,8.22956 2.9846,22.55798 -1.37151,28.25999 -4.32468,38.1021 -12.93816,43.11942 -6.18137,3.60061 -24.13254,9.36365 -38.24433,12.27792 -12.61659,2.6055 -24.56676,2.739 -39.01917,0.43591 -4.54195,-0.72378 -5.86732,-0.23514 -13.75,5.06953 -11.70057,7.87391 -18.03585,10.97973 -30.24793,14.82876 -10.00435,3.15319 -27.17417,5.13357 -32.22562,3.71695 z m 36.25,-7.90599 c 6.1875,-2.22456 14.2415,-6.08949 17.89778,-8.58872 17.45209,-11.92935 17.24125,-11.83863 23.714,-10.20453 8.35562,2.10944 29.32053,1.81365 39.40809,-0.55599 11.69138,-2.74639 28.0768,-7.98825 33.36494,-10.67377 8.78639,-4.46206 13.59458,-20.35292 13.69585,-45.26426 0.0401,-9.86009 -0.35461,-11.7242 -4.12118,-19.46369 -2.29104,-4.70758 -6.51595,-11.67234 -9.38869,-15.47725 -7.97527,-10.5632 -9.45602,-17.63563 -10.68405,-51.0296 -0.67894,-18.46233 -8.65173,-36.7537 -18.62308,-42.72548 -14.28376,-8.55446 -16.12531,-11.98017 -18.35767,-34.14952 -1.72087,-17.08971 -8.45155,-36.16892 -16.26858,-46.1159 -6.84005,-8.70379 -11.07917,-12.03173 -16.82217,-13.2063 -3.50303,-0.71644 -3.87534,-1.37071 -5.94438,-10.44613 -2.50384,-10.98255 -9.35305,-25.91104 -14.44384,-31.48167 -1.88485,-2.0625 -4.95188,-5.79303 -6.81565,-8.29007 -1.91305,-2.56307 -7.90057,-7.18979 -13.75,-10.625 -9.1675,-5.38382 -11.15347,-6.07085 -17.23633,-5.96276 -3.78125,0.0672 -8.42177,0.55463 -10.31225,1.08318 -2.90639,0.81258 -4.23948,0.23624 -8.63147,-3.73165 -6.8011,-6.14438 -22.77465,-13.5421 -38.1261,-17.65707 -9.99906,-2.68026 -15.9704,-3.40948 -31.86243,-3.89105 -18.36756,-0.55659 -20.15446,-0.40072 -29.375,2.56234 -5.39976,1.73525 -14.0365,3.77003 -19.19275,4.52175 -10.16554,1.482 -12.22266,1.15609 -34.34351,-5.44093 -12.8939,-3.8453 -22.68792,-4.02624 -35.65649,-0.65871 -10.85945,2.81986 -16.62012,5.36504 -23.57245,10.41481 -6.25401,4.54254 -11.2067,6.39606 -20.41102,7.6387 -3.22215,0.43502 -7.81703,2.12006 -10.21083,3.74453 -2.3938,1.62448 -4.68158,2.62438 -5.08396,2.222 -1.78521,-1.78521 -7.78153,6.32767 -13.20451,17.86539 -6.03623,12.84246 -9.27777,16.64636 -18.69641,21.93993 -2.70822,1.5221 -5.58968,4.37448 -6.40325,6.3386 -0.81356,1.96413 -1.64721,11.01974 -1.85253,20.12358 -0.39763,17.63013 -0.35865,17.43764 -7.40067,36.55243 -2.9908,8.1182 -4.67216,14.92921 -4.79643,19.42984 -0.18071,6.54475 0.22401,7.53756 7.28286,17.86569 9.85175,14.41453 12.28803,19.42491 15.48231,31.84035 2.51068,9.75847 2.59046,11.55346 1.32061,29.71342 -2.31317,33.0805 -2.0966,42.70924 1.12204,49.88513 3.8196,8.51575 6.9825,11.61302 16.05565,15.72254 15.45921,7.00199 23.43002,17.69707 24.88905,33.39568 0.4576,4.92364 1.30876,8.65741 1.89145,8.29727 0.5827,-0.36012 0.76169,0.12113 0.39775,1.06959 -1.80417,4.70161 6.50085,15.55063 14.76752,19.29113 5.3698,2.42972 15.67633,5.07893 42.79782,11.00081 20.43746,4.46245 24.58871,5.24982 36.875,6.99412 9.95638,1.41352 11.05764,1.8802 17.5,7.41607 8.01958,6.89116 11.96241,9.01535 20.91709,11.26903 6.82716,1.71824 11.39748,1.16119 47.83291,-5.82998 5.84375,-1.12129 15.6875,-2.05319 21.875,-2.07088 10.41896,-0.0298 12.17337,0.35418 23.75,5.19799 12.36118,5.17207 12.63881,5.22437 25,4.7099 10.06908,-0.41906 14.68782,-1.30681 23.75,-4.56489 z M 192.18219,556.43343 c -3.56957,-3.79964 -3.74247,-11.47064 -0.30007,-13.31297 7.48087,-4.00363 14.94238,0.96756 13.35619,8.89849 -1.44914,7.24568 -8.23945,9.54159 -13.05612,4.41448 z m 9.0121,-8.06181 c -1.81077,-2.88877 -6.53138,-3.51718 -7.49802,-0.99816 -0.41627,1.08478 0.20607,3.44192 1.38296,5.23809 l 2.13981,3.26576 2.66778,-2.66778 c 2.10647,-2.10647 2.38156,-3.12439 1.30747,-4.83791 z"
       style="fill:#000000;fill-opacity:1"
       id="path4674" />
  </g>
  <g
     id="g4680"
     transform="translate(-121.97779,-175.72314)">
    <path
       sodipodi:nodetypes="sscscsccssscccccssssccccccssscccsscsss"
       inkscape:connector-curvature="0"
       d="m 420.86526,727.9174 c -10.8709,-1.80562 -23.4752,-6.74806 -35.00278,-13.72541 -5.92524,-3.5864 -11.725,-7.33102 -12.88836,-8.32139 -1.16333,-0.99036 -2.81235,-1.56827 -3.66446,-1.28423 -0.93599,0.312 0.27245,2.17418 3.05268,4.70412 2.53107,2.30324 4.60196,4.94106 4.60196,5.86185 0,2.30368 -1.56934,2.09643 -3.88726,-0.51335 -1.06859,-1.20312 -3.72485,-3.73871 -5.90282,-5.63464 -2.17795,-1.89593 -3.95992,-4.21065 -3.95992,-5.14381 0,-0.96844 3.39101,-2.84209 7.90062,-4.36536 8.39119,-2.8344 12.09938,-3.33069 12.09938,-1.61934 0,1.30559 -5.63046,3.94139 -8.49631,3.9774 -5.66367,0.0711 27.26093,18.28939 37.94637,20.99692 18.98279,4.80998 41.0045,3.0616 56.17494,-4.45991 8.4572,-4.1931 10.30623,-6.0168 14.48371,-14.2852 1.97194,-3.90305 4.19785,-7.475 4.94647,-7.93767 6.22535,-3.84748 -3.81532,15.84072 -10.68018,20.94218 -6.22589,4.62663 -8.32004,5.45047 -23.38133,9.19823 -12.4969,3.10966 -21.6509,3.55158 -33.34271,1.60961 z m 54.53654,-65.55356 c -2.33972,-2.38092 -0.52164,-3.6684 5.30022,-3.75337 3.4298,-0.0501 6.61086,-0.46589 7.06903,-0.92407 0.45817,-0.45816 -0.0836,-3.16668 -1.20405,-6.01892 -1.12039,-2.85225 -1.73739,-5.6708 -1.37112,-6.26345 1.53709,-2.48707 3.06879,-0.66401 4.98755,5.93627 1.82935,6.29276 1.84254,7.21023 0.12825,8.92451 -2.06666,2.06667 -13.37697,3.65893 -14.90988,2.09903 z m -105.9375,-3.06487 c 0,-2.56759 12.17951,-8.89776 25.24871,-13.12274 13.06582,-4.2239 13.93111,-4.3344 34.38967,-4.3915 25.16242,-0.0702 36.53492,1.83729 48.66213,8.16212 1.96597,1.02533 4.27761,1.8677 5.13699,1.87194 0.85937,0.004 1.5625,0.58785 1.5625,1.29692 0,2.68624 -3.70925,2.5244 -9.56097,-0.41715 -11.8946,-5.9792 -21.75373,-7.67607 -44.81403,-7.71302 -14.55904,-0.0234 -23.21793,0.51949 -27.5,1.72396 -9.87347,2.77723 -24.48438,8.77158 -27.86839,11.43344 -3.4256,2.69458 -5.25661,3.09725 -5.25661,1.15603 z"
       style="fill:#000000"
       id="path4678" />
  </g>
</svg>
